<?xml version="1.0" encoding="utf-8"?>
<!-- Generator: Adobe Illustrator 19.1.0, SVG Export Plug-In . SVG Version: 6.00 Build 0)  -->
<svg version="1.1" id="Layer_1" xmlns="http://www.w3.org/2000/svg" xmlns:xlink="http://www.w3.org/1999/xlink" x="0px" y="0px"
	 viewBox="0 0 72 72" enable-background="new 0 0 72 72" xml:space="preserve">
<g>
	<path fill="#FFFFFF" d="M41.8,31.5l-5.3,3.1l-4.5-8c-0.4-0.6-1.3-0.7-1.9-0.4c-0.6,0.3-1,1.3-0.7,1.9l5.3,9.2
		c0.4,0.6,1.4,0.9,2,0.6l6.6-3.8c0.6-0.3,0.8-1.3,0.4-1.9C43.4,31.5,42.4,31.1,41.8,31.5z M36,17.1c-4.6,0-9.2,1.8-12.7,5.4
		c-7,7.2-7,18.9,0,26.1C26.8,52.2,31.4,54,36,54s9.2-1.8,12.7-5.4c7-7.2,7-18.9,0-26.1C45.2,18.9,40.6,17.1,36,17.1z M45.8,45.6
		c-2.6,2.7-6.1,4.1-9.8,4.1s-7.2-1.5-9.8-4.1c-5.4-5.5-5.4-14.5,0-20c2.6-2.7,6.1-4.1,9.8-4.1s7.2,1.5,9.8,4.1
		C51.2,31.1,51.2,40.1,45.8,45.6z"/>
</g>
<g>
	<path fill="#FFFFFF" d="M36,1c19.3,0,35,15.7,35,35S55.3,71,36,71S1,55.3,1,36S16.7,1,36,1 M36,0C16.1,0,0,16.1,0,36s16.1,36,36,36
		s36-16.1,36-36S55.9,0,36,0L36,0z"/>
</g>
</svg>
