<?xml version="1.0" encoding="utf-8"?>
<!-- Generator: Adobe Illustrator 19.1.0, SVG Export Plug-In . SVG Version: 6.00 Build 0)  -->
<svg version="1.1" id="Layer_1" xmlns="http://www.w3.org/2000/svg" xmlns:xlink="http://www.w3.org/1999/xlink" x="0px" y="0px"
	 viewBox="0 0 72 72" enable-background="new 0 0 72 72" xml:space="preserve">
<g>
	<path fill="#FFFFFF" d="M48.6,41l-15.2,4l-7-26l-1.5,0.4L22.5,20l-3,0.8c-1.1,0.3-1.7,1.4-1.4,2.4c0.3,1.1,1.4,1.7,2.5,1.4l3-0.8
		l5.6,20.7c-0.1,0-0.3,0.1-0.4,0.1c-3.3,0.9-5.3,4.3-4.4,7.7c0.9,3.3,4.3,5.3,7.7,4.5c3.3-0.9,5.3-4.3,4.4-7.7
		c-0.1-0.2-0.1-0.5-0.2-0.7l13.6-3.6c1.1-0.3,1.7-1.4,1.4-2.4C50.8,41.3,49.7,40.7,48.6,41z M31.2,53.9c-1.7,0.5-3.5-0.6-4-2.3
		c-0.5-1.8,0.6-3.6,2.3-4s3.5,0.6,4,2.3C34,51.7,33,53.5,31.2,53.9z M29.9,24.3l4.9,18.3L53,37.7l-4.9-18.3L29.9,24.3z"/>
</g>
<g>
	<path fill="#FFFFFF" d="M36,1c19.3,0,35,15.7,35,35S55.3,71,36,71S1,55.3,1,36S16.7,1,36,1 M36,0C16.1,0,0,16.1,0,36s16.1,36,36,36
		s36-16.1,36-36S55.9,0,36,0L36,0z"/>
</g>
</svg>
