<?xml version="1.0" encoding="utf-8"?>
<!-- Generator: Adobe Illustrator 19.1.0, SVG Export Plug-In . SVG Version: 6.00 Build 0)  -->
<svg version="1.1" id="Layer_1" xmlns="http://www.w3.org/2000/svg" xmlns:xlink="http://www.w3.org/1999/xlink" x="0px" y="0px"
	 viewBox="0 0 72 72" enable-background="new 0 0 72 72" xml:space="preserve">
<path fill="#FFFFFF" d="M52.1,45.6H28.2l1.2-3.7l21.1-4.3c0.7-0.2,1.3-0.7,1.5-1.5l2-10.9c0.1-0.5,0-1.1-0.4-1.5S52.7,23,52.2,23
	H27.9l-0.4-3.3c-0.1-1-0.9-1.7-1.9-1.7h-5.8c-1,0-1.9,0.8-1.9,1.9c0,1,0.8,1.9,1.9,1.9H24l2,18.3l-2.1,6.8c-0.2,0.6-0.1,1.2,0.3,1.7
	s0.9,0.8,1.5,0.8h2.6c-0.6,0.5-1,1.2-1,2c0,1.4,1.2,2.6,2.6,2.6s2.6-1.2,2.6-2.6c0-0.8-0.4-1.6-1-2h15.6c-0.6,0.5-1,1.2-1,2
	c0,1.4,1.2,2.6,2.6,2.6c1.4,0,2.6-1.2,2.6-2.6c0-0.8-0.4-1.6-1-2h1.8c1,0,1.9-0.8,1.9-1.9C54,46.4,53.2,45.6,52.1,45.6z M49.9,26.7
	l-1.4,7.4l-0.8,0.2l-0.8-7.6C46.9,26.7,49.9,26.7,49.9,26.7z M43.1,26.7L44,35l-2.4,0.5l-1-8.8H43.1z M36.9,26.7l1.1,9.6l-2.4,0.5
	l-1.1-10.1C34.5,26.7,36.9,26.7,36.9,26.7z M30.7,26.7l1.2,10.8L29.5,38l-1.2-11.3H30.7z"/>
<g>
	<path fill="#FFFFFF" d="M36,1c19.3,0,35,15.7,35,35S55.3,71,36,71S1,55.3,1,36S16.7,1,36,1 M36,0C16.1,0,0,16.1,0,36s16.1,36,36,36
		s36-16.1,36-36S55.9,0,36,0L36,0z"/>
</g>
</svg>
