<!-- This file is generated. Do not edit directly -->
<svg xmlns="http://www.w3.org/2000/svg"><symbol viewBox="0 0 15 15" id="add"><path d="M13.175 5.675H9.322V1.822a1.822 1.822 0 0 0-3.644 0v3.853H1.822a1.822 1.822 0 0 0 0 3.647h3.853v3.853a1.822 1.822 0 0 0 3.644 0V9.322h3.85A1.822 1.822 0 0 0 14.99 7.5a1.818 1.818 0 0 0-1.82-1.825z" fill-rule="evenodd"/></symbol><symbol viewBox="0 0 25 26" id="broadband"><g fill-rule="evenodd"><path d="M12.5 13.793c-.963 0-1.743.78-1.743 1.745v8.48a1.743 1.743 0 0 0 3.486 0v-8.48c0-.964-.78-1.745-1.743-1.745zm0-6.293c-.963 0-1.743.78-1.743 1.746a1.743 1.743 0 0 0 3.486 0c0-.965-.78-1.746-1.743-1.746zM9.35 4.19a1.343 1.343 0 0 0-1.898 0A7.135 7.135 0 0 0 5.36 9.246c0 1.826.7 3.66 2.092 5.05a1.34 1.34 0 0 0 1.897 0 1.348 1.348 0 0 0 0-1.9 4.45 4.45 0 0 1-1.31-3.154 4.46 4.46 0 0 1 1.3-3.16 1.34 1.34 0 0 0 0-1.892zm8.198 0a1.343 1.343 0 0 0-1.897 0 1.348 1.348 0 0 0 0 1.9 4.452 4.452 0 0 1 1.31 3.16 4.45 4.45 0 0 1-1.3 3.155 1.342 1.342 0 0 0 0 1.9 1.34 1.34 0 0 0 1.9 0 7.135 7.135 0 0 0 2.09-5.055 7.16 7.16 0 0 0-2.09-5.06z"/><path d="M2.68 9.25c0-2.523.956-5.03 2.88-6.956a1.348 1.348 0 0 0 0-1.9 1.343 1.343 0 0 0-1.898 0A12.512 12.512 0 0 0 0 9.25a12.5 12.5 0 0 0 3.662 8.847c.522.523 1.37.523 1.897 0a1.348 1.348 0 0 0 0-1.9A9.793 9.793 0 0 1 2.68 9.25zM21.338.394a1.343 1.343 0 0 0-1.897 0 1.348 1.348 0 0 0 0 1.9 9.825 9.825 0 0 1 2.88 6.955 9.785 9.785 0 0 1-2.88 6.95 1.345 1.345 0 0 0 0 1.9 1.34 1.34 0 0 0 1.9 0A12.473 12.473 0 0 0 25 9.25 12.49 12.49 0 0 0 21.338.393z"/></g></symbol><symbol viewBox="0 0 17 17" id="contact"><path d="M13.183 4.718a4.708 4.708 0 0 1-2.033 3.875c5.385 1.176 5.7 4.156 5.777 5.93.016.38-.263.832-.63.928-.93.25-2.8.59-7.833.59-5.034 0-6.905-.34-7.833-.58-.36-.09-.64-.543-.63-.922.08-1.78.4-4.76 5.78-5.93A4.718 4.718 0 0 1 8.47 0a4.718 4.718 0 0 1 4.72 4.717" fill-rule="evenodd"/></symbol><symbol viewBox="0 0 18 18" id="document-check"><g fill-rule="evenodd"><path d="M9.58 3.14c.212.213.494.328.79.328h2.332L9.25 0v2.35c.002.3.117.58.33.79z"/><path d="M11.468 15.704c-.54 0-1.07-.22-1.453-.602L7.25 12.338a2.055 2.055 0 1 1 2.906-2.904l1.312 1.31L12.7 9.512V4.59h-2.33a2.236 2.236 0 0 1-2.24-2.24V0H1.122C.505 0 0 .505 0 1.12v14.94c0 .617.505 1.122 1.122 1.122H11.58c.618 0 1.122-.505 1.122-1.122v-.78c-.356.268-.79.424-1.234.424zM1.68 5.907h9.34a.56.56 0 0 1 0 1.122H1.68a.56.56 0 0 1 0-1.13zm3.302 7.018H1.68a.56.56 0 0 1 0-1.122h3.302a.56.56 0 0 1 0 1.122zm0-2.948H1.68a.56.56 0 0 1 0-1.122h3.302a.56.56 0 0 1 0 1.122z"/><path d="M16.337 7.46l-4.87 4.868-2.105-2.103a.937.937 0 0 0-1.322 0 .937.937 0 0 0 0 1.322l2.764 2.764a.94.94 0 0 0 .66.28.94.94 0 0 0 .662-.27l5.527-5.53a.937.937 0 0 0 0-1.32.928.928 0 0 0-1.316 0z"/></g></symbol><symbol viewBox="0 0 17 14" id="folder-open"><path d="M1.064 3.674V1.1c0-.604.476-1.1 1.06-1.1H7.44C8.02 0 8.5.496 8.5 1.1h6.375c.585 0 1.06.497 1.06 1.102v1.472H1.065zM15.94 4.777H1.06c-.582 0-1.06.497-1.06 1.1l1.064 6.618c0 .607.478 1.1 1.06 1.1h12.753c.586 0 1.062-.495 1.062-1.1L17 5.878c0-.604-.478-1.1-1.06-1.1zM2.656 7.715a.542.542 0 0 1-.532-.552c0-.305.238-.552.532-.552h11.69c.292 0 .53.25.53.56a.542.542 0 0 1-.53.55H2.656z" fill-rule="evenodd"/></symbol><symbol viewBox="0 0 17 17" id="link"><g fill-rule="evenodd"><path d="M8.384 11.742c.008.094.014.186.014.28 0 .873-.338 1.755-1.004 2.42L5.85 15.99a3.425 3.425 0 0 1-4.844.003 3.425 3.425 0 0 1-.003-4.848L2.55 9.6a3.42 3.42 0 0 1 2.702-.99l-.127.128a2.204 2.204 0 0 0-.61 1.957 1.37 1.37 0 0 0-.537.332L2.433 12.57a1.41 1.41 0 0 0-.415.997c0 .365.135.72.415.998.28.276.633.412.997.412a1.4 1.4 0 0 0 .998-.412l1.545-1.545a1.4 1.4 0 0 0 .332-.537 2.217 2.217 0 0 0 1.957-.61l.122-.13z"/><path d="M7.403 11.013l3.61-3.613a1.01 1.01 0 0 0 0-1.427 1.01 1.01 0 0 0-1.427 0L5.976 9.59a1.01 1.01 0 0 0 1.426 1.424"/><path d="M15.988 1.003a3.425 3.425 0 0 0-4.846 0L9.598 2.55a3.43 3.43 0 0 0-1.003 2.42c0 .09.006.185.014.277l.12-.128a2.207 2.207 0 0 1 1.96-.62 1.37 1.37 0 0 1 .33-.54l1.54-1.547c.28-.276.633-.41 1-.41s.72.135.996.414a1.407 1.407 0 0 1-.004 1.996l-1.54 1.55a1.39 1.39 0 0 1-.536.333 2.217 2.217 0 0 1-.61 1.96l-.126.13a3.432 3.432 0 0 0 2.7-.99l1.547-1.548a3.425 3.425 0 0 0 1.003-2.42 3.463 3.463 0 0 0-1.01-2.423z"/></g></symbol><symbol viewBox="0 0 27 20" id="listen"><g fill-rule="evenodd"><path d="M26.64 8.7a2.79 2.79 0 0 0-2.618-2.154C22.104 2.67 18.118 0 13.5 0S4.896 2.67 2.973 6.546A2.794 2.794 0 0 0 .355 8.7C.135 9.66 0 10.68 0 11.75c0 1.07.134 2.09.355 3.05a2.794 2.794 0 0 0 2.618 2.153c.245.01.49 0 .74-.058.12-.028.23-.076.34-.115a2.74 2.74 0 0 0 .9-.546 9.587 9.587 0 0 1-1.107-4.48c0-.38.03-.748.067-1.112.01-.1.03-.197.043-.293a8.84 8.84 0 0 1 .15-.81l.07-.29c.078-.28.16-.55.26-.82l.072-.2a9.51 9.51 0 0 1 .436-.97A9.627 9.627 0 0 1 13.49 2.1a9.627 9.627 0 0 1 8.546 5.17 8.966 8.966 0 0 1 .504 1.147c.1.28.192.558.27.845.023.09.046.178.066.27.062.267.11.54.153.82.01.095.03.19.04.287a9.572 9.572 0 0 1-1.04 5.59c.26.23.56.42.9.54.11.04.22.09.34.11.25.06.49.07.74.06a2.794 2.794 0 0 0 2.62-2.158c.22-.96.35-1.98.35-3.046 0-1.06-.13-2.09-.35-3.053z"/><path d="M13.5 4.187a7.557 7.557 0 0 0 0 15.116 7.557 7.557 0 0 0 0-15.116z"/></g></symbol><symbol viewBox="0 0 18 26" id="mobile"><path d="M17.98 1.575V24.42a1.578 1.578 0 0 1-1.574 1.576H1.576c-.87 0-1.572-.702-1.576-1.57V1.576A1.58 1.58 0 0 1 1.575 0H16.41c.87.004 1.57.706 1.57 1.575zm-2.673 18.252V2.923a.216.216 0 0 0-.216-.215H2.89a.215.215 0 0 0-.212.215v16.904c0 .12.097.212.216.212H15.1a.207.207 0 0 0 .212-.22zM8.97 21.665a1.356 1.356 0 1 0 0 2.713 1.356 1.356 0 0 0 0-2.713z" fill-rule="evenodd"/></symbol><symbol viewBox="-471 274 16 14" id="navigation-arrow-double-left"><path d="M-456.6 288c-.4 0-.8-.1-1.1-.4l-5.9-5.5c-.6-.6-.6-1.5 0-2.1l5.9-5.5c.6-.6 1.6-.6 2.2 0 .6.6.6 1.5 0 2.1l-4.8 4.5 4.8 4.5c.6.6.6 1.5 0 2.1-.3.2-.7.3-1.1.3"/><path d="M-463.6 288c-.4 0-.8-.1-1.1-.4l-5.9-5.5c-.6-.6-.6-1.5 0-2.1l5.9-5.5c.6-.6 1.6-.6 2.2 0 .6.6.6 1.5 0 2.1l-4.8 4.5 4.8 4.5c.6.6.6 1.5 0 2.1-.3.2-.7.3-1.1.3"/></symbol><symbol viewBox="0 0 16 14" id="navigation-arrow-double-right"><g fill-rule="evenodd"><path d="M1.585 14.01c-.398 0-.795-.143-1.098-.43a1.408 1.408 0 0 1 0-2.072l4.76-4.496L.47 2.502A1.408 1.408 0 0 1 .47.43a1.62 1.62 0 0 1 2.197 0l5.875 5.545a1.41 1.41 0 0 1 0 2.074l-5.86 5.53a1.6 1.6 0 0 1-1.097.43"/><path d="M8.585 14.01c-.398 0-.795-.143-1.098-.43a1.408 1.408 0 0 1 0-2.072l4.76-4.496-4.776-4.51a1.408 1.408 0 0 1 0-2.073 1.62 1.62 0 0 1 2.2 0l5.88 5.54a1.41 1.41 0 0 1 0 2.07l-5.86 5.53c-.3.28-.7.43-1.09.43"/></g></symbol><symbol viewBox="0 0 15 10" id="navigation-arrow-down"><path d="M.486 2.084c0-.4.143-.796.43-1.098a1.408 1.408 0 0 1 2.072 0l4.496 4.76L11.994.97a1.408 1.408 0 0 1 2.073 0 1.62 1.62 0 0 1 0 2.196L8.52 9.04a1.41 1.41 0 0 1-2.073 0L.915 3.183c-.286-.303-.43-.7-.43-1.098" fill-rule="evenodd"/></symbol><symbol viewBox="0 0 9 14" id="navigation-arrow-left"><path d="M7.43-.01c.4 0 .796.143 1.1.43.606.572.606 1.5 0 2.072L3.767 6.988l4.777 4.51c.607.572.607 1.5 0 2.073a1.62 1.62 0 0 1-2.196 0L.473 8.03a1.41 1.41 0 0 1 0-2.074L6.333.42c.303-.287.7-.43 1.098-.43" fill-rule="evenodd"/></symbol><symbol viewBox="0 0 18 30" id="navigation-arrow-left-large"><path d="M15.643.82c.604 0 1.21.217 1.67.65a2.12 2.12 0 0 1 0 3.134L6.073 15.4l11.263 10.82a2.12 2.12 0 0 1 0 3.134c-.922.866-2.416.866-3.34 0L1.064 16.968a2.122 2.122 0 0 1 0-3.135L13.974 1.47a2.44 2.44 0 0 1 1.67-.65z" fill-rule="evenodd"/></symbol><symbol viewBox="0 0 7 12" id="navigation-arrow-medium"><path d="M6.707 11.707a1 1 0 0 0 0-1.414L2.414 6l4.293-4.293A1 1 0 0 0 5.293.293l-5 5a1 1 0 0 0 0 1.414l5 5a.997.997 0 0 0 1.414 0z" fill-rule="evenodd"/></symbol><symbol viewBox="0 0 9 14" id="navigation-arrow-right"><path d="M1.57 14.01c-.4 0-.796-.143-1.1-.43a1.408 1.408 0 0 1 0-2.072l4.762-4.496-4.777-4.51a1.408 1.408 0 0 1 0-2.073 1.62 1.62 0 0 1 2.196 0l5.88 5.54a1.41 1.41 0 0 1 0 2.07l-5.86 5.53c-.3.28-.7.43-1.09.43" fill-rule="evenodd"/></symbol><symbol viewBox="0 0 19 30" id="navigation-arrow-right-large"><path d="M3.357 29.18a2.44 2.44 0 0 1-1.67-.65 2.122 2.122 0 0 1 0-3.134L12.927 14.6 1.665 3.78a2.12 2.12 0 0 1 0-3.134c.922-.866 2.416-.866 3.34 0l12.933 12.386a2.122 2.122 0 0 1 0 3.135L5.028 28.53a2.44 2.44 0 0 1-1.67.65z" fill-rule="evenodd"/></symbol><symbol viewBox="0 0 7 12" id="navigation-arrow-right-medium"><path d="M1 12a1 1 0 0 1-.707-1.707L4.586 6 .293 1.707A1 1 0 0 1 1.707.293l5 5a1 1 0 0 1 0 1.414l-5 5A.997.997 0 0 1 1 12" fill-rule="evenodd"/></symbol><symbol viewBox="0 0 14 9" id="navigation-arrow-up"><path d="M14.01 7.412c0 .398-.144.795-.43 1.098a1.41 1.41 0 0 1-2.073 0L7.01 3.75 2.5 8.525c-.57.606-1.5.606-2.072 0a1.62 1.62 0 0 1 0-2.196L5.974.45a1.41 1.41 0 0 1 2.074 0l5.532 5.86c.286.304.43.7.43 1.1" fill-rule="evenodd"/></symbol><symbol viewBox="0 0 18 18" id="navigation-close-medium"><path d="M10.764 8.816l6.493 6.493a1.372 1.372 0 0 1-1.94 1.93l-6.492-6.49-6.493 6.49a1.37 1.37 0 1 1-1.94-1.94l6.495-6.49L.394 2.32A1.37 1.37 0 0 1 2.332.383l6.493 6.494L15.318.384a1.372 1.372 0 0 1 1.94 1.94l-6.494 6.492z" fill-rule="evenodd"/></symbol><symbol viewBox="0 0 14 14" id="navigation-close-small"><path d="M8.64 6.673l4.224-4.263a1.438 1.438 0 0 0 0-2.02 1.408 1.408 0 0 0-2.003 0L6.64 4.652 2.41.39a1.406 1.406 0 0 0-2 0 1.438 1.438 0 0 0 0 2.02l4.224 4.263L.41 10.936a1.438 1.438 0 0 0 0 2.02 1.405 1.405 0 0 0 2 0l4.226-4.262 4.225 4.263a1.407 1.407 0 0 0 2.01 0 1.438 1.438 0 0 0 0-2.02L8.64 6.672z" fill-rule="evenodd"/></symbol><symbol viewBox="0 0 18 18" id="navigation-download"><g fill-rule="evenodd"><path d="M8.574 10.765c.232.322.608.322.837 0L12.6 5.51c.197-.34-.003-.615-.44-.615h-2.1V1.06C10.06.476 9.58 0 8.988 0c-.59 0-1.072.473-1.072 1.06v3.838H5.823c-.438 0-.637.276-.44.615l3.19 5.252z"/><path d="M15.63 8.898h-1.888c-.59 0-1.072.474-1.072 1.06 0 .584.48 1.06 1.072 1.06h.817a1.28 1.28 0 0 1 1.28 1.268v2.332a1.28 1.28 0 0 1-1.29 1.268H3.42a1.28 1.28 0 0 1-1.282-1.268v-2.332c0-.7.58-1.268 1.285-1.268h.816c.59 0 1.07-.473 1.07-1.06 0-.586-.48-1.06-1.07-1.06H2.356C1.057 8.898 0 9.944 0 11.228v4.447C0 16.958 1.057 18 2.355 18H15.63c1.298 0 2.355-1.045 2.355-2.328v-4.445c0-1.283-1.057-2.33-2.355-2.33z"/></g></symbol><symbol viewBox="0 0 19 17" id="navigation-hamburger-menu"><path d="M17.5 10h-16C.7 10 0 9.3 0 8.5S.7 7 1.5 7h16c.8 0 1.5.7 1.5 1.5s-.7 1.5-1.5 1.5zm0-7h-16C.7 3 0 2.3 0 1.5S.7 0 1.5 0h16c.8 0 1.5.7 1.5 1.5S18.3 3 17.5 3zm-16 11h16c.8 0 1.5.7 1.5 1.5s-.7 1.5-1.5 1.5h-16C.7 17 0 16.3 0 15.5S.7 14 1.5 14z" fill-rule="evenodd"/></symbol><symbol viewBox="0 0 73.32 76.634" id="pebble"><path fill-rule="evenodd" clip-rule="evenodd" fill="#FFF" d="M.34 16.744c-.458 3.428-.444 7.16-.013 11.062a64.46 64.46 0 0 0 1.462 8.128C3.46 44.307 8.36 53.15 8.36 53.15c2.615 4.905 5.77 9.432 9.32 13.2.81.83 1.6 1.653 2.453 2.428 3.647 3.324 7.66 5.845 11.932 7.174a15.58 15.58 0 0 0 4.763.682c2.105-.013 4.205-.406 6.277-1.174 3.69-1.357 7.3-3.79 10.645-6.826a53.515 53.515 0 0 0 2.052-1.976c5.268-5.47 7.858-9.46 10.155-13.122a66.825 66.825 0 0 0 5.32-10.366c1.2-3 1.912-5.604 2.005-7.45.13-2.35-.14-4.61-.752-6.786-.905-3.234-2.58-6.264-4.812-9.06 0 0-1.687-1.987-3.464-3.72l-.106-.097c-2.912-2.734-6.354-5.19-10.13-7.284-11.432-6.37-25.73-9.63-36.46-8.58-4.88.49-9.035 1.86-11.825 4.26 0 0-.683.49-1.2 1.194-.41.48-.788.996-1.108 1.54a19.866 19.866 0 0 0-1.16 2.273c-.122.28-.244.577-.36.875-.02.047-.037.095-.053.137-.58 1.593-1.386 4.922-1.513 6.272"/></symbol><symbol viewBox="0 0 73.32 76.634" id="pebble-mirrored"><path fill-rule="evenodd" clip-rule="evenodd" fill="#FFF" d="M72.98 16.744c-.127-1.35-.934-4.68-1.513-6.272-.016-.042-.034-.09-.054-.137a21.783 21.783 0 0 0-.36-.875 19.52 19.52 0 0 0-1.16-2.272c-.32-.544-.7-1.062-1.107-1.54-.52-.705-1.2-1.193-1.2-1.193C64.796 2.057 60.64.685 55.76.195 45.033-.857 30.734 2.405 19.3 8.773c-3.775 2.094-7.218 4.55-10.133 7.284-.036.032-.07.063-.105.098-1.777 1.73-3.465 3.718-3.465 3.718C3.365 22.67 1.69 25.7.785 28.933a20.724 20.724 0 0 0-.752 6.79c.093 1.844.805 4.447 2.005 7.45a66.825 66.825 0 0 0 5.318 10.364C9.653 57.2 12.244 61.19 17.51 66.66a54.28 54.28 0 0 0 2.053 1.975c3.347 3.037 6.956 5.47 10.646 6.826 2.07.77 4.17 1.17 6.27 1.18a15.5 15.5 0 0 0 4.76-.68c4.27-1.33 8.28-3.85 11.93-7.17.85-.772 1.64-1.6 2.45-2.43 3.552-3.765 6.705-8.29 9.32-13.195 0 0 4.91-8.844 6.58-17.217a64.46 64.46 0 0 0 1.46-8.13c.43-3.902.443-7.633-.015-11.06"/></symbol><symbol viewBox="0 0 25 25" id="plane"><path d="M20.954 21.06L18.962 9.757s.69-.687 3.36-3.355a8.21 8.21 0 0 0 2.096-3.606L24.953.66c.033-.2-.014-.367-.125-.48-.107-.106-.28-.157-.48-.124l-2.14.534a8.253 8.253 0 0 0-3.614 2.09l-3.36 3.356-11.32-1.99S2.686 3.82 2.15 4.36L.928 5.58s-.61.69.5 1.265c1.107.57 8.57 4.428 8.57 4.428L6.17 16.166s-.462.767-1.19.65l-3.858-.138c-.27.037-.53.158-.736.362a1.308 1.308 0 0 0 0 1.845 1.4 1.4 0 0 0 .284.21l.01.008s2.96 1.5 3.333 1.868c.368.37 1.872 3.33 1.872 3.33l.01.01c.055.1.12.2.208.28a1.314 1.314 0 0 0 1.85 0c.203-.21.324-.47.362-.73L8.17 20c-.11-.726.652-1.186.652-1.186l4.902-3.823s3.87 7.45 4.442 8.56c.572 1.11 1.26.5 1.26.5l1.226-1.22c.53-.532.302-1.76.302-1.76z" fill-rule="evenodd"/></symbol><symbol viewBox="0 0 22 22" id="search"><path d="M21.415 21.414a2 2 0 0 1-2.83 0l-3.07-3.07A9.976 9.976 0 0 1 10 20a9.973 9.973 0 0 1-7.072-2.928c-3.904-3.906-3.904-10.237 0-14.142A9.97 9.97 0 0 1 9.998 0c2.56 0 5.12.977 7.074 2.93 3.42 3.42 3.843 8.703 1.27 12.585l3.073 3.07a2 2 0 0 1 0 2.83zM10 2.5c-2.004 0-3.888.78-5.303 2.198-2.924 2.923-2.924 7.682 0 10.606A7.45 7.45 0 0 0 10 17.5c2.003 0 3.887-.78 5.304-2.197 2.923-2.923 2.923-7.682 0-10.605A7.45 7.45 0 0 0 9.998 2.5z" fill-rule="evenodd"/></symbol><symbol viewBox="0 0 50 50" id="social-facebook"><g fill="none" fill-rule="evenodd"><circle fill="#000" cx="25" cy="25" r="25"/><path d="M27.8 18.2c0-.9.8-1.7 1.7-1.7h3.4v-4.9h-4.3c-3.5 0-6.3 2.8-6.3 6.3v4.3h-4.6v5.2h4.6v13.4h5.4V27.4h4.6l.6-5.2h-5.2v-4h.1z" fill="#FFF"/></g></symbol><symbol viewBox="0 0 50 51" id="social-google-plus"><g fill="none" fill-rule="evenodd"><circle fill="#000" cx="25" cy="25.6" r="25"/><path d="M37.5 26.4v3.5h-2.6v-3.5h-3.5v-2.6h3.5v-3.5h2.6v3.5H41v2.6h-3.5zm-18.3 9.3C13.6 35.7 9 31.2 9 25.5c0-5.6 4.5-10.2 10.2-10.2 2.6 0 5 1 6.8 2.7l-3 2.9c-1-.9-2.4-1.4-3.9-1.4-3.3 0-6 2.7-6 6s2.7 6 6 6c2.6 0 4.7-1.6 5.6-3.9H19v-4.2h10c.1.7.2 1.4.2 2.1.1 5.7-4.4 10.2-10 10.2" fill="#FFF"/></g></symbol><symbol viewBox="0 0 50 50" id="social-twitter"><g fill="none" fill-rule="evenodd"><circle fill="#000" cx="25" cy="25" r="25"/><path d="M41.1 17.3c-1.1.5-2.2.8-3.4.9 1.2-.7 2.2-1.9 2.6-3.3-1.1.7-2.4 1.2-3.8 1.4-1.1-1.2-2.6-1.9-4.3-1.9-3.3 0-5.9 2.7-5.9 5.9 0 .5.1.9.2 1.4-4.9-.2-9.3-2.6-12.3-6.2-.5.9-.8 1.9-.8 3 0 2.1 1 3.9 2.6 4.9-1 0-1.9-.3-2.7-.7v.1c0 2.9 2 5.3 4.8 5.8-.5.1-1 .2-1.6.2-.4 0-.8 0-1.1-.1.8 2.4 3 4.1 5.6 4.1-2 1.6-4.6 2.5-7.4 2.5-.5 0-1 0-1.4-.1 2.6 1.7 5.8 2.7 9.1 2.7 10.9 0 16.9-9.1 16.9-16.9v-.8c1.1-.7 2.1-1.7 2.9-2.9z" fill="#FFF"/></g></symbol><symbol viewBox="0 0 50 51" id="social-youtube"><g fill="none" fill-rule="evenodd"><circle fill="#000" cx="25" cy="25.5" r="25"/><path d="M22.8 21.6l6.2 4.1.9-.4-7.1-3.7z" opacity=".12" fill="#000"/><path d="M38.2 20.3s-.3-1.8-1-2.6c-1-1-2.1-1-2.6-1.1-3.6-.3-9.1-.3-9.1-.3s-5.5 0-9.1.3c-.5.1-1.6.1-2.6 1.1-.8.8-1 2.6-1 2.6s-.3 2.1-.3 4.2v2c0 2.1.3 4.2.3 4.2s.3 1.8 1 2.6c1 1 2.3 1 2.9 1.1 2.1.2 8.9.3 8.9.3s5.5 0 9.1-.3c.5-.1 1.6-.1 2.6-1.1.8-.8 1-2.6 1-2.6s.3-2.1.3-4.2v-2c-.1-2.1-.4-4.2-.4-4.2zm-15.4 8.6v-7.3l7 3.7-7 3.6z" fill="#FFF"/></g></symbol><symbol viewBox="0 0 44.1 44.1" id="social_linkedin"><circle fill-rule="evenodd" clip-rule="evenodd" fill="#010101" cx="22.1" cy="22.1" r="22.1"/><path d="M13.7 17.4h3.9v12.4h-3.9zm1.9-1.7c-1.2 0-2.2-1-2.2-2.2 0-1.2 1-2.2 2.2-2.2 1.2 0 2.2 1 2.2 2.2.1 1.2-.9 2.2-2.2 2.2zM32 29.8h-3.9v-6c0-1.4 0-3.3-2-3.3s-2.3 1.6-2.3 3.2v6.1H20V17.4h3.7v1.7h.1c.5-1 1.8-2 3.6-2 3.9 0 4.6 2.6 4.6 5.9v6.8z" fill="#FFF"/></symbol><symbol viewBox="0 0 26 26" id="statistics"><path d="M23.237 1.414c0-.78-.634-1.414-1.42-1.414h-2.832c-.78 0-1.418.632-1.418 1.414v21.192h5.666V1.414h.004zm-7.37 8.476c0-.78-.632-1.416-1.417-1.416h-2.83c-.78 0-1.418.632-1.418 1.415V22.6h5.666V9.89zm-7.364 8.477c0-.78-.633-1.415-1.418-1.415H4.252c-.78 0-1.42.632-1.42 1.415v4.24H8.5v-4.24h.003zM25.145 24.3H.85a.85.85 0 0 0 0 1.696h24.295c.47 0 .85-.38.85-.848a.855.855 0 0 0-.85-.85z" fill-rule="evenodd"/></symbol><symbol viewBox="-472 273 15 15" id="subtract"><path d="M-466.3 282.3h7.5c1 0 1.8-.8 1.8-1.8s-.8-1.8-1.8-1.8h-11.4c-1 0-1.8.8-1.8 1.8s.8 1.8 1.8 1.8h3.9"/></symbol><symbol viewBox="0 0 24 27" id="support"><g fill-rule="evenodd"><path d="M15.818 15.86a6.658 6.658 0 0 0 2.878-5.435c0-.02-.004-.038-.004-.06a6.62 6.62 0 0 0-1.95-4.71 6.65 6.65 0 0 0-4.715-1.95c-.416 0-.823.04-1.212.113-.043.008-.09.013-.136.02-.01 0-.01.005-.02.005a6.697 6.697 0 0 0-3.35 1.812 6.627 6.627 0 0 0-1.82 6.04v.026c.04.22.1.42.16.63 0 .01 0 .02.01.02a6.66 6.66 0 0 0 4.842 4.49 3.42 3.42 0 0 1 1.52-.36 3.4 3.4 0 1 1 0 6.8 3.38 3.38 0 0 1-2.325-.92 12.18 12.18 0 0 1-6.31-3.355 12.814 12.814 0 0 1-.686-.753C.34 20.177.11 22.59.04 24.255c-.02.54.373 1.177.893 1.312 1.313.343 3.962.826 11.082.826 7.124 0 9.765-.483 11.08-.826.522-.135.916-.774.89-1.312-.1-2.514-.55-6.726-8.17-8.394z"/><path d="M12.02 0C7.946 0 4.43 2.358 2.73 5.778a2.466 2.466 0 0 0-2.31 1.9 11.988 11.988 0 0 0-.314 2.688c0 .94.118 1.846.313 2.692a2.462 2.462 0 0 0 2.31 1.9 10.36 10.36 0 0 0 7.95 5.68 1.54 1.54 0 0 0 1.33.788 1.545 1.545 0 0 0 0-3.09c-.43 0-.82.178-1.1.466a8.518 8.518 0 0 1-6.83-5.33 2.414 2.414 0 0 1-.07-.185 8.158 8.158 0 0 1-.225-.71c-.02-.086-.046-.17-.067-.26a7.988 7.988 0 0 1-.13-.706c-.01-.08-.03-.17-.037-.26a8.324 8.324 0 0 1-.06-.98c0-.33.03-.66.06-.98.01-.09.03-.17.04-.26a6.75 6.75 0 0 1 .14-.71c.02-.08.04-.17.064-.25a8.04 8.04 0 0 1 .23-.72c.02-.06.04-.12.064-.18a8.506 8.506 0 0 1 7.927-5.42 8.5 8.5 0 0 1 6.023 2.5 8.493 8.493 0 0 1 2.496 6.02.927.927 0 0 0 1.855 0C22.39 4.64 17.746 0 12.02 0z"/></g></symbol><symbol viewBox="0 0 170 35" id="telia-logo"><g fill-rule="evenodd"><path d="M23.092 25.966c4.544-2.62 7.794-5.904 9.293-9.405.617-2.51.97-5.23.97-8.09 0-.4-.02-.78-.056-1.15-.27 4.24-5.78 9.56-13.07 13.04-8.79 4.19-15.38 5.32-18.33 2.12 1.02 2.01 2.39 4.03 3.94 5.85 3.62 3.2 9.587 2.06 17.236-2.35"/><path d="M19.213 17.354c8.292-3.972 14.067-9.625 13.06-13.372-1.653-2.836-5-3.916-8.586-3.916C13.052.066 0 7.028 0 15.91c0 1.142.253 2.42.708 3.757 2.425 3.196 9.84 1.838 18.505-2.313m-.7 12.59c-5.83 2.35-9.17 1.6-11.014.136l-.03-.02c2.85 2.828 6.11 4.817 8.96 4.817 4.99 0 11.84-6.023 15.08-15.36-1.83 3.37-5.74 7.513-13 10.428"/><path d="M18.513 29.945c7.26-2.915 11.176-7.057 13-10.43.33-.95.623-1.937.872-2.954-1.5 3.51-4.75 6.79-9.293 9.41-7.65 4.41-13.616 5.55-17.235 2.36.52.61 1.06 1.19 1.615 1.74l.027.02c1.84 1.47 5.18 2.22 11.01-.13m1.72-9.59c7.28-3.48 12.79-8.8 13.06-13.032C33.16 6.024 32.8 4.92 32.26 4c1.004 3.746-4.77 9.4-13.06 13.37-8.66 4.14-16.08 5.5-18.5 2.308.313.915.72 1.86 1.203 2.81 2.942 3.2 9.537 2.07 18.327-2.12" fill="#FFF"/><path d="M40.922 13.054c-.453 0-.906-.337-1.36-1.013-.296-.46-.444-.82-.444-1.06 0-.41.274-.8.824-1.15a3.237 3.237 0 0 1 1.79-.53H52.43c.68 0 1.018.31 1.018.94 0 .71-.192 1.36-.575 1.95-.384.59-.802.886-1.255.886H48.14V24.8c0 .71-.192 1.36-.575 1.95-.384.587-.803.88-1.256.88-.46 0-.91-.336-1.36-1.012-.3-.467-.45-.822-.45-1.065v-12.5h-3.58zm16.606 3.896c-.837 0-1.552.24-2.144.715-.593.476-.96 1.113-1.1 1.91h6.173a2.59 2.59 0 0 0-.89-1.87c-.557-.503-1.237-.754-2.04-.754zm-3.243 5.25a3.36 3.36 0 0 0 1.255 1.96c.645.494 1.42.74 2.328.74.767 0 1.682-.26 2.746-.778.487-.243.94-.364 1.36-.364.557 0 .836.25.836.753 0 .45-.1.89-.3 1.3-.2.42-.458.72-.772.91a7.615 7.615 0 0 1-1.974.85c-.724.2-1.443.3-2.158.3a6.29 6.29 0 0 1-3.438-.98 6.99 6.99 0 0 1-2.42-2.542 6.76 6.76 0 0 1-.862-3.324c0-1.316.314-2.507.94-3.572.63-1.062 1.448-1.884 2.46-2.465a6.558 6.558 0 0 1 3.32-.87c1.168 0 2.22.275 3.15.82a5.738 5.738 0 0 1 2.16 2.17c.504.9.757 1.89.757 2.962a2.69 2.69 0 0 1-.43 1.492c-.29.44-.607.663-.956.663h-8.002zm12.185 4.504a3.07 3.07 0 0 1-.862-2.17v-13.79c0-.38.266-.745.798-1.09a3.083 3.083 0 0 1 1.713-.52c.64 0 .96.294.96.882V23.42c0 .225.05.41.14.56.09.145.26.27.51.375.28.12.41.363.41.727a3.11 3.11 0 0 1-.525 1.754c-.35.53-.723.792-1.124.792-.783 0-1.462-.307-2.04-.922zm7.323.922c-.4 0-.837-.328-1.307-.987-.28-.45-.42-.79-.42-1.02v-9.69c0-.38.267-.75.8-1.09a3.082 3.082 0 0 1 1.712-.52c.645 0 .967.29.967.88v9.69c0 .46-.09.91-.274 1.35-.18.43-.41.77-.68 1.01-.27.24-.53.36-.79.36m0-14.96c-.45 0-.92-.36-1.41-1.07-.33-.505-.49-.895-.49-1.17 0-.435.3-.84.89-1.22a3.47 3.47 0 0 1 1.91-.57c.736 0 1.1.325 1.1.983 0 .52-.1 1.017-.3 1.493s-.453.85-.76 1.13c-.303.275-.612.414-.93.414m10.4 11.75a4.01 4.01 0 0 0 2.2-.65v-5.89c-.645-.364-1.37-.546-2.17-.546-.994 0-1.83.336-2.5 1-.67.67-1.004 1.505-1.004 2.51 0 1.01.335 1.86 1.007 2.55.67.697 1.495 1.04 2.47 1.04m-.233 3.22c-1.256 0-2.393-.31-3.413-.93a6.67 6.67 0 0 1-3.23-5.767 6.6 6.6 0 0 1 .97-3.504c.65-1.055 1.49-1.873 2.51-2.454a6.65 6.65 0 0 1 3.33-.87c1.01 0 1.996.274 2.955.83.61-.4 1.22-.6 1.83-.6.644 0 .97.295.97.883v9.69a3.4 3.4 0 0 1-.277 1.35c-.183.433-.41.77-.68 1.013-.27.24-.536.363-.797.363-.404 0-.84-.326-1.31-.985a3.513 3.513 0 0 1-.367-.726c-.14.38-.33.71-.562.99-.234.276-.482.46-.744.545-.367.12-.76.18-1.177.18m17.99-14.022c-.175 0-.393-.075-.655-.23-1.15-.676-2.196-1.014-3.14-1.014-.75 0-1.362.146-1.84.44-.48.295-.72.676-.72 1.143 0 .346.094.636.286.87.193.233.563.485 1.113.753.55.27 1.467.645 2.76 1.13 1.67.623 2.896 1.39 3.67 2.3.776.91 1.164 2.04 1.164 3.39a4.815 4.815 0 0 1-.89 2.843c-.592.84-1.38 1.49-2.365 1.95-.99.46-2.065.69-3.23.69a8.1 8.1 0 0 1-2.657-.455 8.86 8.86 0 0 1-2.34-1.197c-.68-.495-1.197-1.04-1.546-1.65-.21-.347-.317-.62-.317-.83 0-.38.25-.73.745-1.05a2.956 2.956 0 0 1 1.636-.48c.33 0 .584.09.76.28.59.66 1.18 1.13 1.764 1.417a4.38 4.38 0 0 0 1.948.43c.855 0 1.54-.176 2.054-.52.51-.35.77-.82.77-1.406 0-.606-.26-1.117-.785-1.53-.52-.416-1.472-.874-2.85-1.377-1.934-.71-3.31-1.48-4.13-2.31-.82-.83-1.23-1.89-1.23-3.17 0-.97.3-1.85.89-2.636.594-.79 1.37-1.4 2.33-1.837.96-.433 2.004-.65 3.137-.65.87 0 1.73.13 2.58.39a8.32 8.32 0 0 1 2.287 1.09c.266.174.396.425.396.754 0 .625-.166 1.19-.497 1.7-.33.513-.695.77-1.096.77m10.82 11.04c.96 0 1.766-.35 2.42-1.054.654-.7.98-1.57.98-2.61 0-1.04-.326-1.91-.98-2.61a3.176 3.176 0 0 0-2.42-1.054c-.96 0-1.764.35-2.42 1.05-.65.7-.98 1.57-.98 2.61 0 1.04.33 1.91.98 2.61.656.704 1.46 1.054 2.42 1.054m0-10.55c1.31 0 2.49.32 3.545.96a6.703 6.703 0 0 1 2.444 2.534 6.934 6.934 0 0 1 .864 3.39c0 1.314-.32 2.5-.953 3.556a6.735 6.735 0 0 1-2.51 2.46 6.825 6.825 0 0 1-3.387.87c-1.308 0-2.49-.32-3.544-.96a6.695 6.695 0 0 1-2.448-2.536 6.93 6.93 0 0 1-.86-3.39c0-1.314.32-2.5.953-3.557a6.736 6.736 0 0 1 2.51-2.455 6.822 6.822 0 0 1 3.387-.87M131.6 27.647c-.4 0-.837-.325-1.308-.984-.28-.45-.42-.79-.42-1.015v-6.57c0-.416-.14-.76-.43-1.027-.287-.265-.657-.4-1.11-.4-.96 0-2.19.51-3.69 1.536v5.74c0 .47-.09.92-.272 1.35-.183.43-.41.77-.68 1.01-.27.243-.536.364-.798.364-.4 0-.84-.33-1.31-.988-.28-.45-.42-.787-.42-1.013v-9.69c0-.38.265-.747.8-1.09a3.082 3.082 0 0 1 1.71-.52c.644 0 .97.292.97.88v.626c1.582-1.16 3.11-1.74 4.572-1.74a3.8 3.8 0 0 1 2.13.62 4.25 4.25 0 0 1 1.48 1.636 4.74 4.74 0 0 1 .523 2.21v6.34c0 .464-.09.914-.274 1.35-.183.43-.41.77-.68 1.01-.27.242-.536.363-.8.363m9.968-10.673c-.833 0-1.55.24-2.14.72-.59.477-.96 1.114-1.097 1.91h6.175a2.59 2.59 0 0 0-.89-1.87c-.56-.502-1.24-.753-2.04-.753zm-3.24 5.25a3.36 3.36 0 0 0 1.255 1.96c.646.498 1.42.74 2.33.74.766 0 1.68-.26 2.745-.78.485-.24.94-.36 1.36-.36.555 0 .834.25.834.755 0 .45-.1.883-.3 1.298-.2.417-.456.72-.77.91a7.61 7.61 0 0 1-1.974.844c-.723.2-1.44.3-2.157.3a6.29 6.29 0 0 1-3.44-.988 6.99 6.99 0 0 1-2.42-2.543 6.758 6.758 0 0 1-.86-3.326c0-1.315.312-2.506.94-3.57.627-1.06 1.447-1.885 2.46-2.466a6.56 6.56 0 0 1 3.32-.87c1.167 0 2.217.272 3.15.82a5.738 5.738 0 0 1 2.16 2.166c.503.9.756 1.89.756 2.965a2.68 2.68 0 0 1-.43 1.492c-.29.44-.61.66-.958.66h-8.002zm17.416-4.44a2.58 2.58 0 0 1-.368-.024 3.046 3.046 0 0 0-.42-.026c-.854 0-1.55.223-2.092.673v6.52c0 .465-.09.916-.273 1.35-.18.43-.41.77-.68 1.01-.27.244-.537.365-.8.365-.4 0-.835-.33-1.306-.987-.28-.45-.42-.79-.42-1.017v-9.69c0-.38.264-.74.796-1.09a3.08 3.08 0 0 1 1.713-.52c.644 0 .966.298.966.886v.624c.33-.465.794-.86 1.387-1.18.59-.32 1.16-.48 1.7-.48.973 0 1.462.347 1.462 1.04a3.12 3.12 0 0 1-.52 1.74c-.35.536-.73.805-1.15.805m8.525 6.65a4.01 4.01 0 0 0 2.2-.65v-5.9c-.647-.363-1.37-.545-2.17-.545-.996 0-1.83.332-2.5 1-.67.665-1.006 1.5-1.006 2.505 0 1.01.334 1.86 1.006 2.55.67.693 1.497 1.04 2.47 1.04m-.23 3.22c-1.256 0-2.393-.31-3.413-.935a6.67 6.67 0 0 1-3.23-5.767c0-1.28.322-2.45.967-3.507s1.48-1.872 2.51-2.453a6.65 6.65 0 0 1 3.32-.87c1.013 0 2 .276 2.96.83.61-.4 1.22-.597 1.83-.597.642 0 .965.295.965.883v9.69c0 .466-.09.916-.274 1.35-.18.432-.41.77-.68 1.012-.27.24-.53.362-.792.362-.402 0-.837-.33-1.31-.988a3.513 3.513 0 0 1-.365-.73 3.3 3.3 0 0 1-.56.987c-.24.28-.485.46-.75.55a3.74 3.74 0 0 1-1.173.18"/></g></symbol><symbol viewBox="0 0 17 13" id="tick"><path d="M6.348 12.328c-.32.303-.687.446-1.056.446-.375 0-.75-.144-1.037-.433L.43 8.42a1.488 1.488 0 0 1 0-2.092 1.457 1.457 0 0 1 2.074 0l2.81 2.88L14.178.43a1.49 1.49 0 0 1 2.093 0c.58.572.58 1.5 0 2.073l-9.92 9.825z" fill-rule="evenodd"/></symbol><symbol viewBox="0 0 28 21" id="tv"><path d="M28 1.696v15.976a1.702 1.702 0 0 1-1.696 1.696h-5.24v.66c0 .5-.404.904-.904.904H7.108a.903.903 0 0 1-.904-.904v-.66H1.696A1.703 1.703 0 0 1 0 17.668V1.696A1.702 1.702 0 0 1 1.696 0H26.3c.94.004 1.696.76 1.7 1.696zM24.4 2.88H3.6c-.128 0-.228.1-.232.232v13.144a.23.23 0 0 0 .232.228h20.8a.23.23 0 0 0 .228-.232V3.108a.223.223 0 0 0-.228-.228zM6.928 6.944c-.232 0-.464-.172-.696-.52-.152-.24-.228-.424-.228-.548 0-.212.14-.412.42-.596.28-.184.584-.272.916-.272h5.464c.348 0 .52.16.52.48 0 .364-.1.7-.292 1-.196.304-.408.456-.64.456h-1.776v6.036c0 .364-.1.7-.292 1-.196.304-.408.456-.64.456-.232 0-.464-.172-.696-.52-.152-.24-.228-.424-.228-.548V6.944H6.928zm10.9 7.492c-.248 0-.496-.172-.736-.52a1.584 1.584 0 0 1-.2-.388L14.06 6.1a.938.938 0 0 1-.08-.308c0-.212.14-.412.42-.596.28-.184.584-.272.916-.272.276 0 .444.112.508.332l2.256 6.4 2.072-5.984c.064-.196.224-.368.488-.52.264-.152.54-.228.836-.228.348 0 .52.16.52.48 0 .224-.04.44-.12.656l-2.764 7.48c-.108.276-.24.496-.396.656-.156.16-.324.24-.5.24h-.388z" fill-rule="evenodd"/></symbol><symbol viewBox="0 0 28.9 23.5" id="twitter-bird"><path d="M28.9 2.9c-1.1.5-2.2.8-3.4.9 1.2-.7 2.2-1.9 2.6-3.3-1.1.7-2.4 1.2-3.8 1.4C23.2.7 21.7 0 20 0c-3.3 0-5.9 2.7-5.9 5.9 0 .5.1.9.2 1.4C9.4 7.1 5 4.7 2 1.1c-.5.9-.8 1.9-.8 3 0 2.1 1 3.9 2.6 4.9-1 0-1.9-.3-2.7-.7v.1c0 2.9 2 5.3 4.8 5.8-.5.1-1 .2-1.6.2-.4 0-.8 0-1.1-.1.8 2.4 3 4.1 5.6 4.1-2 1.6-4.6 2.5-7.4 2.5-.5 0-1 0-1.4-.1 2.6 1.7 5.8 2.7 9.1 2.7C20 23.5 26 14.4 26 6.6v-.8c1.1-.7 2.1-1.7 2.9-2.9z"/></symbol><symbol viewBox="0 0 25 22" id="write-email"><path d="M1.56 17.705c-.856 0-1.56-.703-1.56-1.56V1.56C0 1.265.09.987.236.75l9.534 9.535a3.12 3.12 0 0 0 4.42-.006L23.72.75c.145.24.235.514.235.814V10.4a3.61 3.61 0 0 0-1.043-.15c-.975 0-1.89.378-2.578 1.067l-4.875 4.87-.18.18-.02.03a3.596 3.596 0 0 0-.71 1.305H1.56v.003zm10.417-9.502c.418 0 .81-.165 1.104-.457L20.83 0H3.13l7.747 7.746c.293.292.686.457 1.103.457zm1.907 12.19l.01-.056.015-.057.25-1.01H1.56a.782.782 0 0 0 0 1.564h12.294a2.27 2.27 0 0 1 .028-.44zm10.18-4.705l.323-.322a2.082 2.082 0 0 0-1.47-3.556c-.537 0-1.07.203-1.476.61l-.32.322 2.95 2.946zM22.96 16.79l-2.946-2.945-3.45 3.45v.003a2.052 2.052 0 0 0-.574 1.114l-.565 2.25c-.075.43.18.732.575.732a.7.7 0 0 0 .147-.014l2.25-.564c.41-.072.8-.26 1.114-.575l.32-.32 3.13-3.13z" fill-rule="evenodd"/></symbol></svg>